<?xml version="1.0" standalone="no"?><!DOCTYPE svg PUBLIC "-//W3C//DTD SVG 1.1//EN" "http://www.w3.org/Graphics/SVG/1.1/DTD/svg11.dtd"><svg t="1608517455319" class="icon" viewBox="0 0 1024 1024" version="1.1" xmlns="http://www.w3.org/2000/svg" p-id="4775" xmlns:xlink="http://www.w3.org/1999/xlink" width="64" height="64"><defs><style type="text/css"></style></defs><path d="M956.269714 419.328L578.633143 67.291429A100.790857 100.790857 0 0 0 502.784 33.060571c-28.818286 0-56.393143 12.434286-74.605714 32.914286L64.585143 419.328a63.634286 63.634286 0 0 0 45.933714 108.397714h32.768v358.985143c0 55.661714 44.544 100.937143 100.205714 100.937143h156.086858c20.260571 0 38.253714-16.384 38.253714-36.571429V711.972571c0-10.24 6.656-19.163429 16.822857-19.163428h110.226286c10.166857 0 17.846857 9.069714 17.846857 19.163428V950.857143c0 20.333714 16.969143 36.571429 37.229714 36.571428h156.086857c55.661714 0 101.302857-45.129143 101.302857-100.937142V527.506286h32.621715a63.707429 63.707429 0 0 0 59.172571-38.838857 63.049143 63.049143 0 0 0-12.873143-69.339429z" fill="#d81e06" p-id="4776"></path></svg>