<?xml version="1.0" standalone="no"?><!DOCTYPE svg PUBLIC "-//W3C//DTD SVG 1.1//EN" "http://www.w3.org/Graphics/SVG/1.1/DTD/svg11.dtd"><svg t="1608517417251" class="icon" viewBox="0 0 1024 1024" version="1.1" xmlns="http://www.w3.org/2000/svg" p-id="3729" xmlns:xlink="http://www.w3.org/1999/xlink" width="64" height="64"><defs><style type="text/css"></style></defs><path d="M1015.837467 287.986085l-63.522695 421.120449C942.584673 773.648784 885.910727 822.299278 820.459743 822.299278H345.369384a132.497792 132.497792 0 0 1-131.855029-113.059758L125.278539 128.558749A44.151154 44.151154 0 0 0 81.349027 90.879551H46.662A44.394961 44.394961 0 0 1 2.200546 46.551083c0-24.491479 19.903482-44.328468 44.461454-44.328469h34.687027c66.42621 0 121.903288 47.542282 131.832864 113.081923L216.196227 135.208019h667.786211c38.876067 0 75.713024 16.844818 101.068908 46.234593a132.497792 132.497792 0 0 1 30.786121 106.543473z m-98.165393-48.716986a43.885184 43.885184 0 0 0-33.689636-15.404143H229.672082l71.745626 472.098188c3.324635 21.831771 21.809606 37.679198 43.951676 37.679198h475.090359c21.809606 0 40.715698-16.224219 43.951677-37.701363l63.522695-421.142613a43.663541 43.663541 0 0 0-10.262041-35.529267zM691.220094 644.985405H468.957154a44.394961 44.394961 0 0 1-44.461454-44.328468c0-24.491479 19.903482-44.328468 44.461454-44.328469h222.26294c24.557971 0 44.461454 19.83699 44.461454 44.328469 0 24.469315-19.903482 44.328468-44.461454 44.328468zM313.36423 888.791981a66.581359 66.581359 0 0 1 66.69218 66.492702 66.581359 66.581359 0 0 1-70.570921 66.381882A66.581359 66.581359 0 0 1 246.694214 955.284683c0-36.726136 29.855223-66.492702 66.670016-66.492702z m533.426623 0a66.581359 66.581359 0 0 1 66.692181 66.492702 66.581359 66.581359 0 0 1-70.570922 66.381882A66.581359 66.581359 0 0 1 780.120837 955.284683c0-36.726136 29.855223-66.492702 66.670016-66.492702z" fill="#E93423" p-id="3730"></path></svg>