<?xml version="1.0" standalone="no"?><!DOCTYPE svg PUBLIC "-//W3C//DTD SVG 1.1//EN" "http://www.w3.org/Graphics/SVG/1.1/DTD/svg11.dtd"><svg t="1608517433593" class="icon" viewBox="0 0 1024 1024" version="1.1" xmlns="http://www.w3.org/2000/svg" p-id="4538" xmlns:xlink="http://www.w3.org/1999/xlink" width="64" height="64"><defs><style type="text/css"></style></defs><path d="M319.687805 536.97561H167.336585c-84.917073 0-154.84878 69.931707-154.84878 154.84878v154.848781C12.487805 929.092683 82.419512 999.02439 167.336585 999.02439h154.848781c84.917073 0 154.84878-69.931707 154.84878-154.84878v-154.848781c-2.497561-82.419512-72.429268-152.35122-157.346341-152.351219zM856.663415 0h-154.848781c-84.917073 0-154.84878 69.931707-154.84878 154.84878v154.848781c0 84.917073 69.931707 154.84878 154.84878 154.84878h154.848781c84.917073 0 154.84878-69.931707 154.84878-154.84878V154.84878C1011.512195 69.931707 941.580488 0 856.663415 0z m0 536.97561h-154.848781c-84.917073 0-154.84878 69.931707-154.84878 154.84878v154.848781c0 84.917073 69.931707 154.84878 154.84878 154.84878h154.848781c84.917073 0 154.84878-69.931707 154.84878-154.84878v-154.848781c0-84.917073-69.931707-154.84878-154.84878-154.84878zM319.687805 0H167.336585C82.419512 0 12.487805 69.931707 12.487805 154.84878v154.848781c0 84.917073 69.931707 154.84878 154.84878 154.84878h154.848781c84.917073 0 154.84878-69.931707 154.84878-154.84878V154.84878C474.536585 69.931707 404.604878 0 319.687805 0z" fill="#2c2c2c" p-id="4539"></path></svg>